# xmcd
#
# Track frame offsets:
#	150
#	12255
#	30111
#	44018
#	57871
#	71480
#	85333
#	97318
#	108578
#	121582
#	133176
#	145412
#	156797
#	169179
#	188375
#
# Disc length: 2612 seconds
#
# Revision: 1
# Processed by: cddbd v1.5.2PL0 Copyright (c) Steve Scherf et al.
# Submitted via: audiograbber 1.83.01
#
DISCID=c80a320f
DTITLE=Various Artist - Line Dance Classics - CD2
DYEAR=2011
DGENRE=Country
TTITLE0=Dolly Parton - Jolene
TTITLE1=Billy Swan - I Can Help
TTITLE2=Van Morrison - Brown Eyed Girl
TTITLE3=Collin Raye - That's My Story
TTITLE4=Jimmy Dean - Big Bad John
TTITLE5=The Byrds - Oh! Susannah
TTITLE6=Eddy Arnold - Make The World Go Away
TTITLE7=Don Gibson - Oh Lonesome Me
TTITLE8=Waylon Jennings - Are You Sure Hank Done It This Way
TTITLE9=Dottie West - Here Comes My Baby
TTITLE10=Bobby Bare - 500 Miles Away From Home
TTITLE11=Lefty Frizzell - I Love You Mostly
TTITLE12=Lorrie M organ - What Part Of No
TTITLE13=Dan Foggelberg - Run For The Roses
TTITLE14=Elvis Presley - A Hundred Years From Now
EXTD=
EXTT0=
EXTT1=
EXTT2=
EXTT3=
EXTT4=
EXTT5=
EXTT6=
EXTT7=
EXTT8=
EXTT9=
EXTT10=
EXTT11=
EXTT12=
EXTT13=
EXTT14=
PLAYORDER=
